<svg xmlns="http://www.w3.org/2000/svg" viewBox="0 0 200 200" width="200" height="200">
  <title>RED ECO</title>
  <!-- Favicon: misma geometría de anillo que la marca completa, pero con el
       brote simplificado. A 16 px el libro y la tercera hoja son una mancha. -->
  <rect width="200" height="200" rx="34" fill="#10231a"/>
  <g transform="translate(100 100) scale(0.86) translate(-100 -100)">
    <g fill="#7fb53f" stroke="#7fb53f">
      <g>
        <path d="M34.75 69.57 A 72 72 0 0 1 125.80 32.78" fill="none" stroke-width="14"/>
        <path d="M129.75 22.51 L145.31 44.05 L121.86 43.05 Z" stroke="none"/>
      </g>
      <g transform="rotate(120 100 100)">
        <path d="M34.75 69.57 A 72 72 0 0 1 125.80 32.78" fill="none" stroke-width="14"/>
        <path d="M129.75 22.51 L145.31 44.05 L121.86 43.05 Z" stroke="none"/>
      </g>
      <g transform="rotate(240 100 100)">
        <path d="M34.75 69.57 A 72 72 0 0 1 125.80 32.78" fill="none" stroke-width="14"/>
        <path d="M129.75 22.51 L145.31 44.05 L121.86 43.05 Z" stroke="none"/>
      </g>
    </g>
    <path d="M100 128 C100 112, 100 98, 100 70" fill="none" stroke="#f4f3ea" stroke-width="9" stroke-linecap="round"/>
    <path d="M100 104 C84 104, 74 93, 73 79 C89 78, 99 90, 100 104 Z" fill="#f4f3ea"/>
    <path d="M100 92 C116 92, 126 81, 127 67 C111 66, 101 78, 100 92 Z" fill="#f4f3ea"/>
  </g>
</svg>
